<?xml version="1.0" encoding="UTF-8" standalone="no"?>
<!DOCTYPE svg PUBLIC "-//W3C//DTD SVG 1.1//EN"
 "http://www.w3.org/Graphics/SVG/1.1/DTD/svg11.dtd">
<!-- Generated by graphviz version 2.47.2 (20210527.1257)
 -->
<!-- Title: snakemake_dag Pages: 1 -->
<svg width="1758pt" height="260pt"
 viewBox="0.00 0.00 1757.50 260.00" xmlns="http://www.w3.org/2000/svg" xmlns:xlink="http://www.w3.org/1999/xlink">
<g id="graph0" class="graph" transform="scale(1 1) rotate(0) translate(4 256)">
<title>snakemake_dag</title>
<polygon fill="white" stroke="transparent" points="-4,4 -4,-256 1753.5,-256 1753.5,4 -4,4"/>
<!-- 0 -->
<g id="node1" class="node">
<title>0</title>
<path fill="none" stroke="#59d856" stroke-width="2" d="M876,-36C876,-36 846,-36 846,-36 840,-36 834,-30 834,-24 834,-24 834,-12 834,-12 834,-6 840,0 846,0 846,0 876,0 876,0 882,0 888,-6 888,-12 888,-12 888,-24 888,-24 888,-30 882,-36 876,-36"/>
<text text-anchor="middle" x="861" y="-15.5" font-family="sans" font-size="10.00">all</text>
</g>
<!-- 1 -->
<g id="node2" class="node">
<title>1</title>
<path fill="none" stroke="#56d8a9" stroke-width="2" d="M508.5,-108C508.5,-108 467.5,-108 467.5,-108 461.5,-108 455.5,-102 455.5,-96 455.5,-96 455.5,-84 455.5,-84 455.5,-78 461.5,-72 467.5,-72 467.5,-72 508.5,-72 508.5,-72 514.5,-72 520.5,-78 520.5,-84 520.5,-84 520.5,-96 520.5,-96 520.5,-102 514.5,-108 508.5,-108"/>
<text text-anchor="middle" x="488" y="-87.5" font-family="sans" font-size="10.00">cellranger</text>
</g>
<!-- 1&#45;&gt;0 -->
<g id="edge1" class="edge">
<title>1&#45;&gt;0</title>
<path fill="none" stroke="grey" stroke-width="2" d="M520.88,-74.59C523.6,-73.63 526.33,-72.76 529,-72 633.59,-42.41 761.7,-27.83 823.77,-22.07"/>
<polygon fill="grey" stroke="grey" stroke-width="2" points="824.21,-25.55 833.86,-21.16 823.58,-18.57 824.21,-25.55"/>
</g>
<!-- 2 -->
<g id="node3" class="node">
<title>2</title>
<path fill="none" stroke="#56a9d8" stroke-width="2" d="M397.5,-180C397.5,-180 344.5,-180 344.5,-180 338.5,-180 332.5,-174 332.5,-168 332.5,-168 332.5,-156 332.5,-156 332.5,-150 338.5,-144 344.5,-144 344.5,-144 397.5,-144 397.5,-144 403.5,-144 409.5,-150 409.5,-156 409.5,-156 409.5,-168 409.5,-168 409.5,-174 403.5,-180 397.5,-180"/>
<text text-anchor="middle" x="371" y="-159.5" font-family="sans" font-size="10.00">unmap_bam</text>
</g>
<!-- 2&#45;&gt;1 -->
<g id="edge11" class="edge">
<title>2&#45;&gt;1</title>
<path fill="none" stroke="grey" stroke-width="2" d="M399.62,-143.88C414.92,-134.72 433.94,-123.34 450.42,-113.48"/>
<polygon fill="grey" stroke="grey" stroke-width="2" points="452.48,-116.33 459.27,-108.19 448.89,-110.32 452.48,-116.33"/>
</g>
<!-- 3 -->
<g id="node4" class="node">
<title>3</title>
<path fill="none" stroke="#afd856" stroke-width="2" d="M134,-252C134,-252 12,-252 12,-252 6,-252 0,-246 0,-240 0,-240 0,-228 0,-228 0,-222 6,-216 12,-216 12,-216 134,-216 134,-216 140,-216 146,-222 146,-228 146,-228 146,-240 146,-240 146,-246 140,-252 134,-252"/>
<text text-anchor="middle" x="73" y="-237" font-family="sans" font-size="10.00">download</text>
<text text-anchor="middle" x="73" y="-226" font-family="sans" font-size="10.00">dset: scATAC_BMMC_D5T1</text>
</g>
<!-- 3&#45;&gt;2 -->
<g id="edge13" class="edge">
<title>3&#45;&gt;2</title>
<path fill="none" stroke="grey" stroke-width="2" d="M145.52,-215.97C200.53,-203.04 274.61,-185.64 322.59,-174.37"/>
<polygon fill="grey" stroke="grey" stroke-width="2" points="323.49,-177.76 332.42,-172.06 321.88,-170.94 323.49,-177.76"/>
</g>
<!-- 4 -->
<g id="node5" class="node">
<title>4</title>
<path fill="none" stroke="#d8ac56" stroke-width="2" d="M902,-252C902,-252 818,-252 818,-252 812,-252 806,-246 806,-240 806,-240 806,-228 806,-228 806,-222 812,-216 818,-216 818,-216 902,-216 902,-216 908,-216 914,-222 914,-228 914,-228 914,-240 914,-240 914,-246 908,-252 902,-252"/>
<text text-anchor="middle" x="860" y="-231.5" font-family="sans" font-size="10.00">install_bamtofastq</text>
</g>
<!-- 4&#45;&gt;2 -->
<g id="edge14" class="edge">
<title>4&#45;&gt;2</title>
<path fill="none" stroke="grey" stroke-width="2" d="M805.67,-217.92C802.41,-217.21 799.17,-216.57 796,-216 633.13,-186.82 584.55,-215.82 419.75,-180.08"/>
<polygon fill="grey" stroke="grey" stroke-width="2" points="420.28,-176.62 409.76,-177.87 418.76,-183.45 420.28,-176.62"/>
</g>
<!-- 7 -->
<g id="node8" class="node">
<title>7</title>
<path fill="none" stroke="#56a9d8" stroke-width="2" d="M492.5,-180C492.5,-180 439.5,-180 439.5,-180 433.5,-180 427.5,-174 427.5,-168 427.5,-168 427.5,-156 427.5,-156 427.5,-150 433.5,-144 439.5,-144 439.5,-144 492.5,-144 492.5,-144 498.5,-144 504.5,-150 504.5,-156 504.5,-156 504.5,-168 504.5,-168 504.5,-174 498.5,-180 492.5,-180"/>
<text text-anchor="middle" x="466" y="-159.5" font-family="sans" font-size="10.00">unmap_bam</text>
</g>
<!-- 4&#45;&gt;7 -->
<g id="edge18" class="edge">
<title>4&#45;&gt;7</title>
<path fill="none" stroke="grey" stroke-width="2" d="M806,-218.11C802.62,-217.35 799.27,-216.64 796,-216 674.72,-192.29 638.1,-208.85 514.37,-180.04"/>
<polygon fill="grey" stroke="grey" stroke-width="2" points="515.06,-176.61 504.52,-177.7 513.44,-183.42 515.06,-176.61"/>
</g>
<!-- 10 -->
<g id="node11" class="node">
<title>10</title>
<path fill="none" stroke="#56a9d8" stroke-width="2" d="M587.5,-180C587.5,-180 534.5,-180 534.5,-180 528.5,-180 522.5,-174 522.5,-168 522.5,-168 522.5,-156 522.5,-156 522.5,-150 528.5,-144 534.5,-144 534.5,-144 587.5,-144 587.5,-144 593.5,-144 599.5,-150 599.5,-156 599.5,-156 599.5,-168 599.5,-168 599.5,-174 593.5,-180 587.5,-180"/>
<text text-anchor="middle" x="561" y="-159.5" font-family="sans" font-size="10.00">unmap_bam</text>
</g>
<!-- 4&#45;&gt;10 -->
<g id="edge22" class="edge">
<title>4&#45;&gt;10</title>
<path fill="none" stroke="grey" stroke-width="2" d="M805.94,-218.36C802.59,-217.53 799.25,-216.74 796,-216 716.14,-197.77 691.83,-202.17 609.37,-180.16"/>
<polygon fill="grey" stroke="grey" stroke-width="2" points="610.14,-176.75 599.57,-177.5 608.3,-183.5 610.14,-176.75"/>
</g>
<!-- 13 -->
<g id="node14" class="node">
<title>13</title>
<path fill="none" stroke="#56a9d8" stroke-width="2" d="M682.5,-180C682.5,-180 629.5,-180 629.5,-180 623.5,-180 617.5,-174 617.5,-168 617.5,-168 617.5,-156 617.5,-156 617.5,-150 623.5,-144 629.5,-144 629.5,-144 682.5,-144 682.5,-144 688.5,-144 694.5,-150 694.5,-156 694.5,-156 694.5,-168 694.5,-168 694.5,-174 688.5,-180 682.5,-180"/>
<text text-anchor="middle" x="656" y="-159.5" font-family="sans" font-size="10.00">unmap_bam</text>
</g>
<!-- 4&#45;&gt;13 -->
<g id="edge26" class="edge">
<title>4&#45;&gt;13</title>
<path fill="none" stroke="grey" stroke-width="2" d="M808.64,-215.97C780.21,-206.47 744.02,-194.27 704.32,-180.43"/>
<polygon fill="grey" stroke="grey" stroke-width="2" points="705.3,-177.07 694.71,-177.07 702.99,-183.68 705.3,-177.07"/>
</g>
<!-- 16 -->
<g id="node17" class="node">
<title>16</title>
<path fill="none" stroke="#56a9d8" stroke-width="2" d="M777.5,-180C777.5,-180 724.5,-180 724.5,-180 718.5,-180 712.5,-174 712.5,-168 712.5,-168 712.5,-156 712.5,-156 712.5,-150 718.5,-144 724.5,-144 724.5,-144 777.5,-144 777.5,-144 783.5,-144 789.5,-150 789.5,-156 789.5,-156 789.5,-168 789.5,-168 789.5,-174 783.5,-180 777.5,-180"/>
<text text-anchor="middle" x="751" y="-159.5" font-family="sans" font-size="10.00">unmap_bam</text>
</g>
<!-- 4&#45;&gt;16 -->
<g id="edge30" class="edge">
<title>4&#45;&gt;16</title>
<path fill="none" stroke="grey" stroke-width="2" d="M833.34,-215.88C819.22,-206.81 801.69,-195.55 786.44,-185.76"/>
<polygon fill="grey" stroke="grey" stroke-width="2" points="788.07,-182.65 777.77,-180.19 784.29,-188.54 788.07,-182.65"/>
</g>
<!-- 19 -->
<g id="node20" class="node">
<title>19</title>
<path fill="none" stroke="#56a9d8" stroke-width="2" d="M999.5,-180C999.5,-180 946.5,-180 946.5,-180 940.5,-180 934.5,-174 934.5,-168 934.5,-168 934.5,-156 934.5,-156 934.5,-150 940.5,-144 946.5,-144 946.5,-144 999.5,-144 999.5,-144 1005.5,-144 1011.5,-150 1011.5,-156 1011.5,-156 1011.5,-168 1011.5,-168 1011.5,-174 1005.5,-180 999.5,-180"/>
<text text-anchor="middle" x="973" y="-159.5" font-family="sans" font-size="10.00">unmap_bam</text>
</g>
<!-- 4&#45;&gt;19 -->
<g id="edge34" class="edge">
<title>4&#45;&gt;19</title>
<path fill="none" stroke="grey" stroke-width="2" d="M887.64,-215.88C902.42,-206.72 920.79,-195.34 936.7,-185.48"/>
<polygon fill="grey" stroke="grey" stroke-width="2" points="938.59,-188.43 945.25,-180.19 934.91,-182.48 938.59,-188.43"/>
</g>
<!-- 22 -->
<g id="node23" class="node">
<title>22</title>
<path fill="none" stroke="#56a9d8" stroke-width="2" d="M1094.5,-180C1094.5,-180 1041.5,-180 1041.5,-180 1035.5,-180 1029.5,-174 1029.5,-168 1029.5,-168 1029.5,-156 1029.5,-156 1029.5,-150 1035.5,-144 1041.5,-144 1041.5,-144 1094.5,-144 1094.5,-144 1100.5,-144 1106.5,-150 1106.5,-156 1106.5,-156 1106.5,-168 1106.5,-168 1106.5,-174 1100.5,-180 1094.5,-180"/>
<text text-anchor="middle" x="1068" y="-159.5" font-family="sans" font-size="10.00">unmap_bam</text>
</g>
<!-- 4&#45;&gt;22 -->
<g id="edge38" class="edge">
<title>4&#45;&gt;22</title>
<path fill="none" stroke="grey" stroke-width="2" d="M912.33,-215.96C941.37,-206.44 978.34,-194.21 1019.55,-180.12"/>
<polygon fill="grey" stroke="grey" stroke-width="2" points="1020.93,-183.35 1029.25,-176.8 1018.66,-176.73 1020.93,-183.35"/>
</g>
<!-- 25 -->
<g id="node26" class="node">
<title>25</title>
<path fill="none" stroke="#56a9d8" stroke-width="2" d="M1189.5,-180C1189.5,-180 1136.5,-180 1136.5,-180 1130.5,-180 1124.5,-174 1124.5,-168 1124.5,-168 1124.5,-156 1124.5,-156 1124.5,-150 1130.5,-144 1136.5,-144 1136.5,-144 1189.5,-144 1189.5,-144 1195.5,-144 1201.5,-150 1201.5,-156 1201.5,-156 1201.5,-168 1201.5,-168 1201.5,-174 1195.5,-180 1189.5,-180"/>
<text text-anchor="middle" x="1163" y="-159.5" font-family="sans" font-size="10.00">unmap_bam</text>
</g>
<!-- 4&#45;&gt;25 -->
<g id="edge42" class="edge">
<title>4&#45;&gt;25</title>
<path fill="none" stroke="grey" stroke-width="2" d="M914.23,-218.08C917.19,-217.35 920.13,-216.66 923,-216 1004.58,-197.37 1029.38,-202.17 1114.55,-179.88"/>
<polygon fill="grey" stroke="grey" stroke-width="2" points="1115.63,-183.21 1124.39,-177.25 1113.83,-176.45 1115.63,-183.21"/>
</g>
<!-- 28 -->
<g id="node29" class="node">
<title>28</title>
<path fill="none" stroke="#56a9d8" stroke-width="2" d="M1284.5,-180C1284.5,-180 1231.5,-180 1231.5,-180 1225.5,-180 1219.5,-174 1219.5,-168 1219.5,-168 1219.5,-156 1219.5,-156 1219.5,-150 1225.5,-144 1231.5,-144 1231.5,-144 1284.5,-144 1284.5,-144 1290.5,-144 1296.5,-150 1296.5,-156 1296.5,-156 1296.5,-168 1296.5,-168 1296.5,-174 1290.5,-180 1284.5,-180"/>
<text text-anchor="middle" x="1258" y="-159.5" font-family="sans" font-size="10.00">unmap_bam</text>
</g>
<!-- 4&#45;&gt;28 -->
<g id="edge46" class="edge">
<title>4&#45;&gt;28</title>
<path fill="none" stroke="grey" stroke-width="2" d="M914.18,-217.87C917.16,-217.2 920.11,-216.57 923,-216 1046.36,-191.77 1083.68,-209.19 1209.47,-180.07"/>
<polygon fill="grey" stroke="grey" stroke-width="2" points="1210.56,-183.41 1219.48,-177.7 1208.94,-176.6 1210.56,-183.41"/>
</g>
<!-- 31 -->
<g id="node32" class="node">
<title>31</title>
<path fill="none" stroke="#56a9d8" stroke-width="2" d="M1379.5,-180C1379.5,-180 1326.5,-180 1326.5,-180 1320.5,-180 1314.5,-174 1314.5,-168 1314.5,-168 1314.5,-156 1314.5,-156 1314.5,-150 1320.5,-144 1326.5,-144 1326.5,-144 1379.5,-144 1379.5,-144 1385.5,-144 1391.5,-150 1391.5,-156 1391.5,-156 1391.5,-168 1391.5,-168 1391.5,-174 1385.5,-180 1379.5,-180"/>
<text text-anchor="middle" x="1353" y="-159.5" font-family="sans" font-size="10.00">unmap_bam</text>
</g>
<!-- 4&#45;&gt;31 -->
<g id="edge50" class="edge">
<title>4&#45;&gt;31</title>
<path fill="none" stroke="grey" stroke-width="2" d="M914.16,-217.76C917.14,-217.12 920.1,-216.52 923,-216 1087.97,-186.21 1137.25,-216.16 1304.13,-180.11"/>
<polygon fill="grey" stroke="grey" stroke-width="2" points="1305.23,-183.45 1314.24,-177.88 1303.72,-176.61 1305.23,-183.45"/>
</g>
<!-- 5 -->
<g id="node6" class="node">
<title>5</title>
<path fill="none" stroke="#d85656" stroke-width="2" stroke-dasharray="5,2" d="M904,-180C904,-180 820,-180 820,-180 814,-180 808,-174 808,-168 808,-168 808,-156 808,-156 808,-150 814,-144 820,-144 820,-144 904,-144 904,-144 910,-144 916,-150 916,-156 916,-156 916,-168 916,-168 916,-174 910,-180 904,-180"/>
<text text-anchor="middle" x="862" y="-159.5" font-family="sans" font-size="10.00">reference_genome</text>
</g>
<!-- 5&#45;&gt;1 -->
<g id="edge12" class="edge">
<title>5&#45;&gt;1</title>
<path fill="none" stroke="grey" stroke-width="2" d="M807.99,-146.14C804.62,-145.37 801.27,-144.65 798,-144 682.82,-121.09 647.34,-138.4 530.53,-108.06"/>
<polygon fill="grey" stroke="grey" stroke-width="2" points="531.42,-104.67 520.86,-105.49 529.63,-111.44 531.42,-104.67"/>
</g>
<!-- 6 -->
<g id="node7" class="node">
<title>6</title>
<path fill="none" stroke="#56d8a9" stroke-width="2" d="M591.5,-108C591.5,-108 550.5,-108 550.5,-108 544.5,-108 538.5,-102 538.5,-96 538.5,-96 538.5,-84 538.5,-84 538.5,-78 544.5,-72 550.5,-72 550.5,-72 591.5,-72 591.5,-72 597.5,-72 603.5,-78 603.5,-84 603.5,-84 603.5,-96 603.5,-96 603.5,-102 597.5,-108 591.5,-108"/>
<text text-anchor="middle" x="571" y="-87.5" font-family="sans" font-size="10.00">cellranger</text>
</g>
<!-- 5&#45;&gt;6 -->
<g id="edge16" class="edge">
<title>5&#45;&gt;6</title>
<path fill="none" stroke="grey" stroke-width="2" d="M807.94,-146.36C804.58,-145.54 801.25,-144.75 798,-144 718.97,-125.88 694.44,-131.76 613.52,-108.18"/>
<polygon fill="grey" stroke="grey" stroke-width="2" points="614.49,-104.81 603.91,-105.32 612.5,-111.52 614.49,-104.81"/>
</g>
<!-- 9 -->
<g id="node10" class="node">
<title>9</title>
<path fill="none" stroke="#56d8a9" stroke-width="2" d="M674.5,-108C674.5,-108 633.5,-108 633.5,-108 627.5,-108 621.5,-102 621.5,-96 621.5,-96 621.5,-84 621.5,-84 621.5,-78 627.5,-72 633.5,-72 633.5,-72 674.5,-72 674.5,-72 680.5,-72 686.5,-78 686.5,-84 686.5,-84 686.5,-96 686.5,-96 686.5,-102 680.5,-108 674.5,-108"/>
<text text-anchor="middle" x="654" y="-87.5" font-family="sans" font-size="10.00">cellranger</text>
</g>
<!-- 5&#45;&gt;9 -->
<g id="edge20" class="edge">
<title>5&#45;&gt;9</title>
<path fill="none" stroke="grey" stroke-width="2" d="M807.83,-145.1C777.27,-135.83 738.24,-123.5 696.17,-108.3"/>
<polygon fill="grey" stroke="grey" stroke-width="2" points="697.17,-104.94 686.57,-104.8 694.77,-111.52 697.17,-104.94"/>
</g>
<!-- 12 -->
<g id="node13" class="node">
<title>12</title>
<path fill="none" stroke="#56d8a9" stroke-width="2" d="M757.5,-108C757.5,-108 716.5,-108 716.5,-108 710.5,-108 704.5,-102 704.5,-96 704.5,-96 704.5,-84 704.5,-84 704.5,-78 710.5,-72 716.5,-72 716.5,-72 757.5,-72 757.5,-72 763.5,-72 769.5,-78 769.5,-84 769.5,-84 769.5,-96 769.5,-96 769.5,-102 763.5,-108 757.5,-108"/>
<text text-anchor="middle" x="737" y="-87.5" font-family="sans" font-size="10.00">cellranger</text>
</g>
<!-- 5&#45;&gt;12 -->
<g id="edge24" class="edge">
<title>5&#45;&gt;12</title>
<path fill="none" stroke="grey" stroke-width="2" d="M831.42,-143.88C814.93,-134.64 794.38,-123.13 776.66,-113.21"/>
<polygon fill="grey" stroke="grey" stroke-width="2" points="778.13,-110.02 767.7,-108.19 774.71,-116.13 778.13,-110.02"/>
</g>
<!-- 15 -->
<g id="node16" class="node">
<title>15</title>
<path fill="none" stroke="#56d8a9" stroke-width="2" d="M840.5,-108C840.5,-108 799.5,-108 799.5,-108 793.5,-108 787.5,-102 787.5,-96 787.5,-96 787.5,-84 787.5,-84 787.5,-78 793.5,-72 799.5,-72 799.5,-72 840.5,-72 840.5,-72 846.5,-72 852.5,-78 852.5,-84 852.5,-84 852.5,-96 852.5,-96 852.5,-102 846.5,-108 840.5,-108"/>
<text text-anchor="middle" x="820" y="-87.5" font-family="sans" font-size="10.00">cellranger</text>
</g>
<!-- 5&#45;&gt;15 -->
<g id="edge28" class="edge">
<title>5&#45;&gt;15</title>
<path fill="none" stroke="grey" stroke-width="2" d="M851.62,-143.7C846.74,-135.56 840.81,-125.69 835.42,-116.7"/>
<polygon fill="grey" stroke="grey" stroke-width="2" points="838.41,-114.88 830.26,-108.1 832.41,-118.48 838.41,-114.88"/>
</g>
<!-- 18 -->
<g id="node19" class="node">
<title>18</title>
<path fill="none" stroke="#56d8a9" stroke-width="2" d="M923.5,-108C923.5,-108 882.5,-108 882.5,-108 876.5,-108 870.5,-102 870.5,-96 870.5,-96 870.5,-84 870.5,-84 870.5,-78 876.5,-72 882.5,-72 882.5,-72 923.5,-72 923.5,-72 929.5,-72 935.5,-78 935.5,-84 935.5,-84 935.5,-96 935.5,-96 935.5,-102 929.5,-108 923.5,-108"/>
<text text-anchor="middle" x="903" y="-87.5" font-family="sans" font-size="10.00">cellranger</text>
</g>
<!-- 5&#45;&gt;18 -->
<g id="edge32" class="edge">
<title>5&#45;&gt;18</title>
<path fill="none" stroke="grey" stroke-width="2" d="M872.13,-143.7C876.85,-135.64 882.56,-125.89 887.78,-116.98"/>
<polygon fill="grey" stroke="grey" stroke-width="2" points="890.95,-118.5 892.98,-108.1 884.91,-114.96 890.95,-118.5"/>
</g>
<!-- 21 -->
<g id="node22" class="node">
<title>21</title>
<path fill="none" stroke="#56d8a9" stroke-width="2" d="M1006.5,-108C1006.5,-108 965.5,-108 965.5,-108 959.5,-108 953.5,-102 953.5,-96 953.5,-96 953.5,-84 953.5,-84 953.5,-78 959.5,-72 965.5,-72 965.5,-72 1006.5,-72 1006.5,-72 1012.5,-72 1018.5,-78 1018.5,-84 1018.5,-84 1018.5,-96 1018.5,-96 1018.5,-102 1012.5,-108 1006.5,-108"/>
<text text-anchor="middle" x="986" y="-87.5" font-family="sans" font-size="10.00">cellranger</text>
</g>
<!-- 5&#45;&gt;21 -->
<g id="edge36" class="edge">
<title>5&#45;&gt;21</title>
<path fill="none" stroke="grey" stroke-width="2" d="M892.33,-143.88C908.7,-134.64 929.08,-123.13 946.65,-113.21"/>
<polygon fill="grey" stroke="grey" stroke-width="2" points="948.56,-116.15 955.55,-108.19 945.12,-110.06 948.56,-116.15"/>
</g>
<!-- 24 -->
<g id="node25" class="node">
<title>24</title>
<path fill="none" stroke="#56d8a9" stroke-width="2" d="M1089.5,-108C1089.5,-108 1048.5,-108 1048.5,-108 1042.5,-108 1036.5,-102 1036.5,-96 1036.5,-96 1036.5,-84 1036.5,-84 1036.5,-78 1042.5,-72 1048.5,-72 1048.5,-72 1089.5,-72 1089.5,-72 1095.5,-72 1101.5,-78 1101.5,-84 1101.5,-84 1101.5,-96 1101.5,-96 1101.5,-102 1095.5,-108 1089.5,-108"/>
<text text-anchor="middle" x="1069" y="-87.5" font-family="sans" font-size="10.00">cellranger</text>
</g>
<!-- 5&#45;&gt;24 -->
<g id="edge40" class="edge">
<title>5&#45;&gt;24</title>
<path fill="none" stroke="grey" stroke-width="2" d="M916.22,-144.69C946.3,-135.39 984.54,-123.14 1026.49,-108.06"/>
<polygon fill="grey" stroke="grey" stroke-width="2" points="1027.86,-111.29 1036.07,-104.59 1025.48,-104.71 1027.86,-111.29"/>
</g>
<!-- 27 -->
<g id="node28" class="node">
<title>27</title>
<path fill="none" stroke="#56d8a9" stroke-width="2" d="M1172.5,-108C1172.5,-108 1131.5,-108 1131.5,-108 1125.5,-108 1119.5,-102 1119.5,-96 1119.5,-96 1119.5,-84 1119.5,-84 1119.5,-78 1125.5,-72 1131.5,-72 1131.5,-72 1172.5,-72 1172.5,-72 1178.5,-72 1184.5,-78 1184.5,-84 1184.5,-84 1184.5,-96 1184.5,-96 1184.5,-102 1178.5,-108 1172.5,-108"/>
<text text-anchor="middle" x="1152" y="-87.5" font-family="sans" font-size="10.00">cellranger</text>
</g>
<!-- 5&#45;&gt;27 -->
<g id="edge44" class="edge">
<title>5&#45;&gt;27</title>
<path fill="none" stroke="grey" stroke-width="2" d="M916.23,-146.1C919.19,-145.37 922.13,-144.67 925,-144 1003.57,-125.78 1027.9,-131.36 1109.5,-107.83"/>
<polygon fill="grey" stroke="grey" stroke-width="2" points="1110.59,-111.15 1119.2,-104.97 1108.62,-104.44 1110.59,-111.15"/>
</g>
<!-- 30 -->
<g id="node31" class="node">
<title>30</title>
<path fill="none" stroke="#56d8a9" stroke-width="2" d="M1255.5,-108C1255.5,-108 1214.5,-108 1214.5,-108 1208.5,-108 1202.5,-102 1202.5,-96 1202.5,-96 1202.5,-84 1202.5,-84 1202.5,-78 1208.5,-72 1214.5,-72 1214.5,-72 1255.5,-72 1255.5,-72 1261.5,-72 1267.5,-78 1267.5,-84 1267.5,-84 1267.5,-96 1267.5,-96 1267.5,-102 1261.5,-108 1255.5,-108"/>
<text text-anchor="middle" x="1235" y="-87.5" font-family="sans" font-size="10.00">cellranger</text>
</g>
<!-- 5&#45;&gt;30 -->
<g id="edge48" class="edge">
<title>5&#45;&gt;30</title>
<path fill="none" stroke="grey" stroke-width="2" d="M916.19,-145.9C919.16,-145.22 922.11,-144.58 925,-144 1040.14,-120.86 1075.66,-138.39 1192.47,-108.06"/>
<polygon fill="grey" stroke="grey" stroke-width="2" points="1193.37,-111.44 1202.14,-105.49 1191.58,-104.67 1193.37,-111.44"/>
</g>
<!-- 6&#45;&gt;0 -->
<g id="edge2" class="edge">
<title>6&#45;&gt;0</title>
<path fill="none" stroke="grey" stroke-width="2" d="M603.93,-74.74C606.64,-73.75 609.35,-72.82 612,-72 685.53,-49.14 774.3,-32.85 823.51,-24.77"/>
<polygon fill="grey" stroke="grey" stroke-width="2" points="824.37,-28.18 833.68,-23.13 823.25,-21.27 824.37,-28.18"/>
</g>
<!-- 7&#45;&gt;6 -->
<g id="edge15" class="edge">
<title>7&#45;&gt;6</title>
<path fill="none" stroke="grey" stroke-width="2" d="M491.69,-143.88C505.29,-134.81 522.17,-123.55 536.86,-113.76"/>
<polygon fill="grey" stroke="grey" stroke-width="2" points="538.84,-116.65 545.22,-108.19 534.95,-110.82 538.84,-116.65"/>
</g>
<!-- 8 -->
<g id="node9" class="node">
<title>8</title>
<path fill="none" stroke="#afd856" stroke-width="2" d="M298,-252C298,-252 176,-252 176,-252 170,-252 164,-246 164,-240 164,-240 164,-228 164,-228 164,-222 170,-216 176,-216 176,-216 298,-216 298,-216 304,-216 310,-222 310,-228 310,-228 310,-240 310,-240 310,-246 304,-252 298,-252"/>
<text text-anchor="middle" x="237" y="-237" font-family="sans" font-size="10.00">download</text>
<text text-anchor="middle" x="237" y="-226" font-family="sans" font-size="10.00">dset: scATAC_BMMC_D6T1</text>
</g>
<!-- 8&#45;&gt;7 -->
<g id="edge17" class="edge">
<title>8&#45;&gt;7</title>
<path fill="none" stroke="grey" stroke-width="2" d="M298.42,-215.93C331.24,-206.6 372.52,-194.52 417.61,-180.04"/>
<polygon fill="grey" stroke="grey" stroke-width="2" points="418.85,-183.32 427.29,-176.92 416.7,-176.66 418.85,-183.32"/>
</g>
<!-- 9&#45;&gt;0 -->
<g id="edge3" class="edge">
<title>9&#45;&gt;0</title>
<path fill="none" stroke="grey" stroke-width="2" d="M686.58,-75.2C689.41,-74.09 692.25,-73.01 695,-72 738.77,-55.97 789.97,-40.04 823.82,-29.89"/>
<polygon fill="grey" stroke="grey" stroke-width="2" points="825.15,-33.15 833.74,-26.94 823.15,-26.44 825.15,-33.15"/>
</g>
<!-- 10&#45;&gt;9 -->
<g id="edge19" class="edge">
<title>10&#45;&gt;9</title>
<path fill="none" stroke="grey" stroke-width="2" d="M583.99,-143.7C595.81,-134.8 610.39,-123.82 623.18,-114.2"/>
<polygon fill="grey" stroke="grey" stroke-width="2" points="625.39,-116.91 631.28,-108.1 621.18,-111.32 625.39,-116.91"/>
</g>
<!-- 11 -->
<g id="node12" class="node">
<title>11</title>
<path fill="none" stroke="#afd856" stroke-width="2" d="M457.5,-252C457.5,-252 340.5,-252 340.5,-252 334.5,-252 328.5,-246 328.5,-240 328.5,-240 328.5,-228 328.5,-228 328.5,-222 334.5,-216 340.5,-216 340.5,-216 457.5,-216 457.5,-216 463.5,-216 469.5,-222 469.5,-228 469.5,-228 469.5,-240 469.5,-240 469.5,-246 463.5,-252 457.5,-252"/>
<text text-anchor="middle" x="399" y="-237" font-family="sans" font-size="10.00">download</text>
<text text-anchor="middle" x="399" y="-226" font-family="sans" font-size="10.00">dset: scATAC_CD34_D7T1</text>
</g>
<!-- 11&#45;&gt;10 -->
<g id="edge21" class="edge">
<title>11&#45;&gt;10</title>
<path fill="none" stroke="grey" stroke-width="2" d="M438.63,-215.88C461.12,-206.16 489.43,-193.92 513.16,-183.67"/>
<polygon fill="grey" stroke="grey" stroke-width="2" points="514.55,-186.89 522.34,-179.71 511.77,-180.46 514.55,-186.89"/>
</g>
<!-- 12&#45;&gt;0 -->
<g id="edge4" class="edge">
<title>12&#45;&gt;0</title>
<path fill="none" stroke="grey" stroke-width="2" d="M767.33,-71.88C784.75,-62.04 806.73,-49.64 825.02,-39.31"/>
<polygon fill="grey" stroke="grey" stroke-width="2" points="826.95,-42.24 833.93,-34.28 823.5,-36.15 826.95,-42.24"/>
</g>
<!-- 13&#45;&gt;12 -->
<g id="edge23" class="edge">
<title>13&#45;&gt;12</title>
<path fill="none" stroke="grey" stroke-width="2" d="M676.02,-143.7C686.13,-134.97 698.54,-124.24 709.52,-114.75"/>
<polygon fill="grey" stroke="grey" stroke-width="2" points="711.93,-117.29 717.21,-108.1 707.35,-111.99 711.93,-117.29"/>
</g>
<!-- 14 -->
<g id="node15" class="node">
<title>14</title>
<path fill="none" stroke="#afd856" stroke-width="2" d="M616.5,-252C616.5,-252 499.5,-252 499.5,-252 493.5,-252 487.5,-246 487.5,-240 487.5,-240 487.5,-228 487.5,-228 487.5,-222 493.5,-216 499.5,-216 499.5,-216 616.5,-216 616.5,-216 622.5,-216 628.5,-222 628.5,-228 628.5,-228 628.5,-240 628.5,-240 628.5,-246 622.5,-252 616.5,-252"/>
<text text-anchor="middle" x="558" y="-237" font-family="sans" font-size="10.00">download</text>
<text text-anchor="middle" x="558" y="-226" font-family="sans" font-size="10.00">dset: scATAC_CD34_D8T1</text>
</g>
<!-- 14&#45;&gt;13 -->
<g id="edge25" class="edge">
<title>14&#45;&gt;13</title>
<path fill="none" stroke="grey" stroke-width="2" d="M581.97,-215.88C594.55,-206.89 610.13,-195.76 623.75,-186.03"/>
<polygon fill="grey" stroke="grey" stroke-width="2" points="625.83,-188.85 631.93,-180.19 621.76,-183.15 625.83,-188.85"/>
</g>
<!-- 15&#45;&gt;0 -->
<g id="edge5" class="edge">
<title>15&#45;&gt;0</title>
<path fill="none" stroke="grey" stroke-width="2" d="M830.13,-71.7C834.85,-63.64 840.56,-53.89 845.78,-44.98"/>
<polygon fill="grey" stroke="grey" stroke-width="2" points="848.95,-46.5 850.98,-36.1 842.91,-42.96 848.95,-46.5"/>
</g>
<!-- 16&#45;&gt;15 -->
<g id="edge27" class="edge">
<title>16&#45;&gt;15</title>
<path fill="none" stroke="grey" stroke-width="2" d="M768.06,-143.7C776.5,-135.14 786.82,-124.66 796.04,-115.3"/>
<polygon fill="grey" stroke="grey" stroke-width="2" points="798.61,-117.68 803.14,-108.1 793.63,-112.77 798.61,-117.68"/>
</g>
<!-- 17 -->
<g id="node18" class="node">
<title>17</title>
<path fill="none" stroke="#afd856" stroke-width="2" d="M775.5,-252C775.5,-252 658.5,-252 658.5,-252 652.5,-252 646.5,-246 646.5,-240 646.5,-240 646.5,-228 646.5,-228 646.5,-222 652.5,-216 658.5,-216 658.5,-216 775.5,-216 775.5,-216 781.5,-216 787.5,-222 787.5,-228 787.5,-228 787.5,-240 787.5,-240 787.5,-246 781.5,-252 775.5,-252"/>
<text text-anchor="middle" x="717" y="-237" font-family="sans" font-size="10.00">download</text>
<text text-anchor="middle" x="717" y="-226" font-family="sans" font-size="10.00">dset: scATAC_CD34_D9T1</text>
</g>
<!-- 17&#45;&gt;16 -->
<g id="edge29" class="edge">
<title>17&#45;&gt;16</title>
<path fill="none" stroke="grey" stroke-width="2" d="M725.4,-215.7C729.27,-207.73 733.95,-198.1 738.24,-189.26"/>
<polygon fill="grey" stroke="grey" stroke-width="2" points="741.47,-190.63 742.69,-180.1 735.17,-187.57 741.47,-190.63"/>
</g>
<!-- 18&#45;&gt;0 -->
<g id="edge6" class="edge">
<title>18&#45;&gt;0</title>
<path fill="none" stroke="grey" stroke-width="2" d="M892.62,-71.7C887.74,-63.56 881.81,-53.69 876.42,-44.7"/>
<polygon fill="grey" stroke="grey" stroke-width="2" points="879.41,-42.88 871.26,-36.1 873.41,-46.48 879.41,-42.88"/>
</g>
<!-- 19&#45;&gt;18 -->
<g id="edge31" class="edge">
<title>19&#45;&gt;18</title>
<path fill="none" stroke="grey" stroke-width="2" d="M955.7,-143.7C947.14,-135.14 936.66,-124.66 927.3,-115.3"/>
<polygon fill="grey" stroke="grey" stroke-width="2" points="929.65,-112.7 920.1,-108.1 924.7,-117.65 929.65,-112.7"/>
</g>
<!-- 20 -->
<g id="node21" class="node">
<title>20</title>
<path fill="none" stroke="#afd856" stroke-width="2" d="M1069.5,-252C1069.5,-252 944.5,-252 944.5,-252 938.5,-252 932.5,-246 932.5,-240 932.5,-240 932.5,-228 932.5,-228 932.5,-222 938.5,-216 944.5,-216 944.5,-216 1069.5,-216 1069.5,-216 1075.5,-216 1081.5,-222 1081.5,-228 1081.5,-228 1081.5,-240 1081.5,-240 1081.5,-246 1075.5,-252 1069.5,-252"/>
<text text-anchor="middle" x="1007" y="-237" font-family="sans" font-size="10.00">download</text>
<text text-anchor="middle" x="1007" y="-226" font-family="sans" font-size="10.00">dset: scATAC_PBMC_D10T1</text>
</g>
<!-- 20&#45;&gt;19 -->
<g id="edge33" class="edge">
<title>20&#45;&gt;19</title>
<path fill="none" stroke="grey" stroke-width="2" d="M998.6,-215.7C994.73,-207.73 990.05,-198.1 985.76,-189.26"/>
<polygon fill="grey" stroke="grey" stroke-width="2" points="988.83,-187.57 981.31,-180.1 982.53,-190.63 988.83,-187.57"/>
</g>
<!-- 21&#45;&gt;0 -->
<g id="edge7" class="edge">
<title>21&#45;&gt;0</title>
<path fill="none" stroke="grey" stroke-width="2" d="M955.42,-71.88C937.78,-62 915.5,-49.52 897.02,-39.17"/>
<polygon fill="grey" stroke="grey" stroke-width="2" points="898.72,-36.11 888.28,-34.28 895.3,-42.22 898.72,-36.11"/>
</g>
<!-- 22&#45;&gt;21 -->
<g id="edge35" class="edge">
<title>22&#45;&gt;21</title>
<path fill="none" stroke="grey" stroke-width="2" d="M1047.73,-143.7C1037.5,-134.97 1024.94,-124.24 1013.82,-114.75"/>
<polygon fill="grey" stroke="grey" stroke-width="2" points="1015.91,-111.94 1006.04,-108.1 1011.37,-117.26 1015.91,-111.94"/>
</g>
<!-- 23 -->
<g id="node24" class="node">
<title>23</title>
<path fill="none" stroke="#afd856" stroke-width="2" d="M1236.5,-252C1236.5,-252 1111.5,-252 1111.5,-252 1105.5,-252 1099.5,-246 1099.5,-240 1099.5,-240 1099.5,-228 1099.5,-228 1099.5,-222 1105.5,-216 1111.5,-216 1111.5,-216 1236.5,-216 1236.5,-216 1242.5,-216 1248.5,-222 1248.5,-228 1248.5,-228 1248.5,-240 1248.5,-240 1248.5,-246 1242.5,-252 1236.5,-252"/>
<text text-anchor="middle" x="1174" y="-237" font-family="sans" font-size="10.00">download</text>
<text text-anchor="middle" x="1174" y="-226" font-family="sans" font-size="10.00">dset: scATAC_PBMC_D11T1</text>
</g>
<!-- 23&#45;&gt;22 -->
<g id="edge37" class="edge">
<title>23&#45;&gt;22</title>
<path fill="none" stroke="grey" stroke-width="2" d="M1148.07,-215.88C1134.34,-206.81 1117.29,-195.55 1102.46,-185.76"/>
<polygon fill="grey" stroke="grey" stroke-width="2" points="1104.3,-182.78 1094.03,-180.19 1100.45,-188.62 1104.3,-182.78"/>
</g>
<!-- 24&#45;&gt;0 -->
<g id="edge8" class="edge">
<title>24&#45;&gt;0</title>
<path fill="none" stroke="grey" stroke-width="2" d="M1036.08,-75.4C1033.02,-74.22 1029.96,-73.07 1027,-72 983.17,-56.16 931.97,-40.19 898.15,-29.98"/>
<polygon fill="grey" stroke="grey" stroke-width="2" points="898.82,-26.53 888.24,-27.01 896.81,-33.23 898.82,-26.53"/>
</g>
<!-- 25&#45;&gt;24 -->
<g id="edge39" class="edge">
<title>25&#45;&gt;24</title>
<path fill="none" stroke="grey" stroke-width="2" d="M1139.76,-143.7C1127.81,-134.8 1113.08,-123.82 1100.15,-114.2"/>
<polygon fill="grey" stroke="grey" stroke-width="2" points="1102.08,-111.27 1091.97,-108.1 1097.9,-116.88 1102.08,-111.27"/>
</g>
<!-- 26 -->
<g id="node27" class="node">
<title>26</title>
<path fill="none" stroke="#afd856" stroke-width="2" d="M1403.5,-252C1403.5,-252 1278.5,-252 1278.5,-252 1272.5,-252 1266.5,-246 1266.5,-240 1266.5,-240 1266.5,-228 1266.5,-228 1266.5,-222 1272.5,-216 1278.5,-216 1278.5,-216 1403.5,-216 1403.5,-216 1409.5,-216 1415.5,-222 1415.5,-228 1415.5,-228 1415.5,-240 1415.5,-240 1415.5,-246 1409.5,-252 1403.5,-252"/>
<text text-anchor="middle" x="1341" y="-237" font-family="sans" font-size="10.00">download</text>
<text text-anchor="middle" x="1341" y="-226" font-family="sans" font-size="10.00">dset: scATAC_PBMC_D12T1</text>
</g>
<!-- 26&#45;&gt;25 -->
<g id="edge41" class="edge">
<title>26&#45;&gt;25</title>
<path fill="none" stroke="grey" stroke-width="2" d="M1297.46,-215.88C1271.33,-205.6 1238.06,-192.52 1211.16,-181.94"/>
<polygon fill="grey" stroke="grey" stroke-width="2" points="1212.14,-178.56 1201.56,-178.16 1209.58,-185.08 1212.14,-178.56"/>
</g>
<!-- 27&#45;&gt;0 -->
<g id="edge9" class="edge">
<title>27&#45;&gt;0</title>
<path fill="none" stroke="grey" stroke-width="2" d="M1119.18,-75.08C1116.1,-73.97 1113.01,-72.92 1110,-72 1036.38,-49.45 947.64,-33.05 898.46,-24.87"/>
<polygon fill="grey" stroke="grey" stroke-width="2" points="898.73,-21.37 888.29,-23.2 897.59,-28.27 898.73,-21.37"/>
</g>
<!-- 28&#45;&gt;27 -->
<g id="edge43" class="edge">
<title>28&#45;&gt;27</title>
<path fill="none" stroke="grey" stroke-width="2" d="M1232.07,-143.88C1218.34,-134.81 1201.29,-123.55 1186.46,-113.76"/>
<polygon fill="grey" stroke="grey" stroke-width="2" points="1188.3,-110.78 1178.03,-108.19 1184.45,-116.62 1188.3,-110.78"/>
</g>
<!-- 29 -->
<g id="node30" class="node">
<title>29</title>
<path fill="none" stroke="#afd856" stroke-width="2" d="M1570.5,-252C1570.5,-252 1445.5,-252 1445.5,-252 1439.5,-252 1433.5,-246 1433.5,-240 1433.5,-240 1433.5,-228 1433.5,-228 1433.5,-222 1439.5,-216 1445.5,-216 1445.5,-216 1570.5,-216 1570.5,-216 1576.5,-216 1582.5,-222 1582.5,-228 1582.5,-228 1582.5,-240 1582.5,-240 1582.5,-246 1576.5,-252 1570.5,-252"/>
<text text-anchor="middle" x="1508" y="-237" font-family="sans" font-size="10.00">download</text>
<text text-anchor="middle" x="1508" y="-226" font-family="sans" font-size="10.00">dset: scATAC_PBMC_D12T2</text>
</g>
<!-- 29&#45;&gt;28 -->
<g id="edge45" class="edge">
<title>29&#45;&gt;28</title>
<path fill="none" stroke="grey" stroke-width="2" d="M1437.01,-215.92C1400.53,-206.78 1355.22,-194.87 1306.47,-180.02"/>
<polygon fill="grey" stroke="grey" stroke-width="2" points="1307.27,-176.6 1296.68,-177.01 1305.21,-183.3 1307.27,-176.6"/>
</g>
<!-- 30&#45;&gt;0 -->
<g id="edge10" class="edge">
<title>30&#45;&gt;0</title>
<path fill="none" stroke="grey" stroke-width="2" d="M1202.12,-74.59C1199.4,-73.63 1196.67,-72.75 1194,-72 1089.09,-42.35 960.6,-27.79 898.35,-22.06"/>
<polygon fill="grey" stroke="grey" stroke-width="2" points="898.5,-18.56 888.23,-21.15 897.87,-25.53 898.5,-18.56"/>
</g>
<!-- 31&#45;&gt;30 -->
<g id="edge47" class="edge">
<title>31&#45;&gt;30</title>
<path fill="none" stroke="grey" stroke-width="2" d="M1324.13,-143.88C1308.71,-134.72 1289.52,-123.34 1272.9,-113.48"/>
<polygon fill="grey" stroke="grey" stroke-width="2" points="1274.36,-110.28 1263.98,-108.19 1270.79,-116.3 1274.36,-110.28"/>
</g>
<!-- 32 -->
<g id="node33" class="node">
<title>32</title>
<path fill="none" stroke="#afd856" stroke-width="2" d="M1737.5,-252C1737.5,-252 1612.5,-252 1612.5,-252 1606.5,-252 1600.5,-246 1600.5,-240 1600.5,-240 1600.5,-228 1600.5,-228 1600.5,-222 1606.5,-216 1612.5,-216 1612.5,-216 1737.5,-216 1737.5,-216 1743.5,-216 1749.5,-222 1749.5,-228 1749.5,-228 1749.5,-240 1749.5,-240 1749.5,-246 1743.5,-252 1737.5,-252"/>
<text text-anchor="middle" x="1675" y="-237" font-family="sans" font-size="10.00">download</text>
<text text-anchor="middle" x="1675" y="-226" font-family="sans" font-size="10.00">dset: scATAC_PBMC_D12T3</text>
</g>
<!-- 32&#45;&gt;31 -->
<g id="edge49" class="edge">
<title>32&#45;&gt;31</title>
<path fill="none" stroke="grey" stroke-width="2" d="M1600.32,-216.76C1539.06,-203.45 1454.12,-184.98 1401.41,-173.52"/>
<polygon fill="grey" stroke="grey" stroke-width="2" points="1402.16,-170.1 1391.64,-171.4 1400.67,-176.94 1402.16,-170.1"/>
</g>
</g>
</svg>
